<svg width="15" height="15" viewBox="0 0 15 15" fill="none" xmlns="http://www.w3.org/2000/svg">
<path d="M7.33337 1.73337C10.4204 1.73337 12.9334 4.24637 12.9334 7.33337C12.9334 10.4204 10.4204 12.9334 7.33337 12.9334C4.24637 12.9334 1.73337 10.4204 1.73337 7.33337C1.73337 4.24637 4.24637 1.73337 7.33337 1.73337ZM7.33337 0.333374C3.46937 0.333374 0.333374 3.46937 0.333374 7.33337C0.333374 11.1974 3.46937 14.3334 7.33337 14.3334C11.1974 14.3334 14.3334 11.1974 14.3334 7.33337C14.3334 3.46937 11.1974 0.333374 7.33337 0.333374ZM8.03337 7.33337V4.53337H6.63337V7.33337H4.53337L7.33337 10.1334L10.1334 7.33337H8.03337Z" fill="#010101"/>
</svg>
