<svg xmlns="http://www.w3.org/2000/svg" viewBox="0 0 256 256">
  <rect style="fill:#d20962;fill-opacity:1;stroke:#fff;stroke-width:0;stroke-linecap:round;stroke-linejoin:round;stroke-miterlimit:4;stroke-dasharray:none;stroke-dashoffset:424" width="256" height="256" rx="16" ry="16"/>
  <path style="fill:#fff;stroke-width:1" d="M51.081 84.915c-5.769 0-9.906.83-12.408 2.49-2.809 1.865-4.213 5.245-4.213 10.139v18.877c0 5.943-2.502 9.278-7.508 10.006v3.146c5.006.758 7.508 4.122 7.508 10.094v18.701c0 4.312 1.054 7.429 3.16 9.352 2.442 2.243 6.929 3.365 13.461 3.365h1.191v-3.016h-.55c-4.335 0-7.386-.626-9.157-1.879-2.014-1.398-3.021-4.063-3.021-7.996V139.58c0-5.564-2.885-9.438-8.654-11.623 5.769-2.068 8.654-5.913 8.654-11.535V97.806c0-3.467.747-5.914 2.242-7.342 1.74-1.66 5.052-2.49 9.936-2.49h.55v-3.059zm152.648 0v3.059h.55c4.883 0 8.195.83 9.935 2.49 1.495 1.428 2.242 3.875 2.242 7.342v18.615c0 5.622 2.885 9.467 8.654 11.535-5.769 2.185-8.654 6.06-8.654 11.623v18.615c0 3.933-1.007 6.598-3.021 7.996-1.77 1.253-4.822 1.88-9.157 1.88h-.549v3.015h1.19c6.532 0 11.02-1.122 13.46-3.365 2.107-1.923 3.161-5.04 3.161-9.352v-18.701c0-5.972 2.502-9.336 7.508-10.094v-3.146c-5.006-.728-7.508-4.063-7.508-10.006V97.544c0-4.894-1.404-8.274-4.213-10.139-2.502-1.66-6.639-2.49-12.408-2.49z"/>
  <path d="M103.435 160.95h-13.17v-44.125l-9.516 28.635h-9.137l-9.515-28.635v44.125H49.616v-65.9h15.377l11.55 33.06 11.515-33.06h15.377zm49.889-53.154h-23.617v12.26H151.6v12.746h-21.893v28.148h-13.17v-65.9h36.787zm53.06 32.972q0 4.78-1.517 8.542-1.482 3.762-4.103 6.24-3.034 2.921-6.688 4.16-3.62 1.24-9.206 1.24h-22.41v-65.9h19.928q6.206 0 9.068.531 2.896.532 5.723 2.346 2.93 1.903 4.344 5.134 1.448 3.186 1.448 7.302 0 4.78-1.965 8.454-1.965 3.629-5.551 5.665v.354q5.034 1.283 7.964 5.31 2.965 4.028 2.965 10.622zm-16.963-27.085q0-1.638-.655-3.275-.62-1.638-2.24-2.434-1.449-.709-3.62-.753-2.138-.088-6.034-.088h-1.242v13.94h2.07q3.137 0 5.343-.132 2.207-.133 3.482-.885 1.793-1.018 2.345-2.611.551-1.638.551-3.762zm3.241 26.82q0-3.143-.965-4.824-.931-1.726-3.206-2.567-1.552-.576-4.276-.62-2.723-.044-5.688-.044h-2.897v16.42h.966q5.585 0 7.999-.045 2.413-.044 4.447-1.15 2.069-1.107 2.827-2.922.793-1.858.793-4.248z" transform="translate(2)" aria-label="MFB" style="font-weight:700;font-size:80px;line-height:1.25;-inkscape-font-specification:'sans-serif, Bold';letter-spacing:0;word-spacing:0;fill:#fff;stroke-width:.999999"/>
</svg>