<svg version="1.1" id="Layer_1" xmlns="http://www.w3.org/2000/svg" xmlns:xlink="http://www.w3.org/1999/xlink" x="0px" y="0px" width="100px" height="100px" viewBox="-19 -40 100 100" enable-background="new -19 -40 100 100" xml:space="preserve"><g><path d="M24,34.6L38.8,5l3.3,3.3L56.5-2l-1.6-2.2l-12.6,9L21.2-16.3l8.9-12.5l-2.2-1.6L17.7-16.1l3.3,3.3L-8.6,2l0,0.8 c-0.7,13.2-2,27.9-9.1,35.2l-0.9,0.9l2,2l1.9,1.9l1.8,1.8l1-1c7-7.1,21.2-8.3,35.2-9.1L24,34.6z M-12.2,40.3L6.3,21.8 c1.5,0.6,3.2,0.4,4.4-0.8c1.6-1.6,1.6-4.1,0-5.7c-1.6-1.6-4.1-1.6-5.7,0c-1.3,1.3-1.5,3.2-0.7,4.7l-19,19l-0.2-0.2 c6.8-8,8.2-22.2,8.9-35.2L23-10.7L36.8,3L22.3,32C9.1,32.7-4.3,34-12.2,40.3z"/><rect x="-5.3" y="47.8" width="86" height="2.7"/></g></svg>
