<svg version="1.1" id="Capa_1" xmlns="http://www.w3.org/2000/svg" xmlns:xlink="http://www.w3.org/1999/xlink" x="0px" y="0px" width="95.864px" height="95.864px" viewBox="0 0 95.864 95.864" style="enable-background:new 0 0 95.864 95.864;" xml:space="preserve"><g><g><path d="M26.847,43.907c0.279,0.805,1.037,1.345,1.889,1.345h5.59c0.656,0,1.271-0.322,1.645-0.862s0.459-1.229,0.227-1.843 L23.632,9.19c-0.293-0.779-1.039-1.295-1.871-1.295h-6.869c-0.826,0-1.568,0.509-1.865,1.28L0.134,42.582 c-0.236,0.615-0.156,1.308,0.217,1.852c0.373,0.543,0.99,0.868,1.65,0.868h5.07c0.836,0,1.584-0.52,1.875-1.303l2.695-7.247 h12.723L26.847,43.907z M14.027,29.873l4.154-12.524l3.9,12.524H14.027z"/><path d="M39.711,45.25h10.01c3.274,0,9.371,0,13.272-4.488c2.14-2.482,2.39-7.353,1.609-9.807 c-0.836-2.395-2.43-4.028-5.103-5.193c2.015-1.046,3.437-2.515,4.234-4.382c1.207-2.857,0.596-6.954-1.434-9.55 c-2.781-3.471-7.6-3.939-11.949-3.939L39.709,7.896c-1.104,0-1.998,0.896-1.998,2V43.25C37.711,44.355,38.606,45.25,39.711,45.25z  M55.375,35.911c-0.586,1.227-1.813,2.361-6.811,2.361H47.28V29.56l1.813-0.001c2.971,0,4.705,0.295,5.93,1.894 C55.877,32.587,55.92,34.806,55.375,35.911z M54.625,20.298c-0.854,1.514-2.039,2.333-5.712,2.333H47.28v-7.808l1.847-0.001 c2.609,0.064,4.123,0.343,5.115,1.658C55.05,17.592,55.007,19.458,54.625,20.298z"/><path d="M95.677,38.77c-0.031-0.632-0.359-1.212-0.886-1.563c-0.524-0.353-1.188-0.436-1.782-0.224 c-4.802,1.706-8.121,1.787-11.17,0.258c-3.761-1.946-5.666-5.227-5.824-9.99c-0.062-4.17,0.528-8.79,5.358-11.445 c1.416-0.775,3.07-1.168,4.92-1.168c2.461,0,4.9,0.723,6.515,1.328c0.598,0.227,1.266,0.149,1.799-0.199 c0.535-0.351,0.869-0.935,0.9-1.572l0.18-3.542c0.047-0.94-0.568-1.787-1.478-2.031c-2.006-0.541-5.149-1.185-8.745-1.185 c-3.873,0-7.265,0.733-10.085,2.183c-7.836,4.055-9.102,11.791-9.278,14.92c-0.181,2.901-0.123,12.788,8.117,18.195 c3.883,2.5,8.541,3.024,11.764,3.024c2.816,0,5.812-0.417,8.438-1.175c0.892-0.258,1.488-1.094,1.443-2.02L95.677,38.77z"/><path d="M88.453,49.394c-0.067-0.531-0.346-1.016-0.772-1.34c-0.429-0.325-0.968-0.463-1.498-0.388 c-20.898,3.031-38.422,16.966-47.236,25.268l-16.85-19.696c-0.717-0.841-1.98-0.938-2.818-0.222l-6.471,5.533 c-0.404,0.346-0.654,0.836-0.695,1.364s0.131,1.054,0.475,1.455l21.268,24.861c1.061,1.238,2.525,2.003,4.041,2.146 c0.17,0.022,0.393,0.052,0.738,0.052c1.039,0,3.023-0.272,4.646-2.104c0.203-0.226,20.568-22.684,44.559-26.252 c1.075-0.16,1.825-1.152,1.688-2.23L88.453,49.394z"/></g></g></svg>
