<svg version="1.1" id="Layer_1" xmlns="http://www.w3.org/2000/svg" xmlns:xlink="http://www.w3.org/1999/xlink" x="0px" y="0px" width="128px" height="128px" viewBox="-5 -54 128 128" enable-background="new -5 -54 128 128" xml:space="preserve"><g><path d="M26.5-28.7h12.1c-0.5,4.4-2.9,16-13.4,33L24.1,6l1.4,1.4C45,27,54.9,46.2,56.4,49.4v0.2h0.1c0.1,0.2,0.1,0.3,0.1,0.3 l2.5,5.5l2.2-5.6c0,0,0-0.1,0.1-0.1h0.1v-0.3c1.2-2.9,9.3-20.2,30.9-41.8L94,6l-1.2-1.8C82.6-10.5,79.5-23.3,78.7-28.7h12.9 c2.5,0,4.6-2,4.6-4.6V-54H21.9v20.8C21.9-30.7,23.9-28.7,26.5-28.7z M59,6.2c-3.9,0-7.1-3.2-7.1-7.1C51.9-4.8,55.1-8,59-8 c3.9,0,7.1,3.2,7.1,7.1C66.1,3,62.9,6.2,59,6.2z M87.4,5.4C74.1,18.8,66.1,30.5,61.6,38.2V11.1c5.5-1.2,9.7-6.1,9.7-12 c0-6.7-5.5-12.2-12.2-12.2c-6.7,0-12.2,5.5-12.2,12.2c0,5.9,4.2,10.8,9.7,12v27.6c-4.8-8-13.2-20.5-25.9-33.4 c10.6-17.5,12.7-29.4,13.2-33.9h29.7C74.2-23.4,77-10.3,87.4,5.4z M27-48.9h64v15.1H27V-48.9z"/><path d="M95.8,47.3v10.6H22.2V47.6H-5v26.3h27.2h0V63h73.6v10.6H123V47.3H95.8z M0.1,68.8V52.7h17v7.7c0,0,0,0,0,0s0,0,0,0v8.3H0.1 z M117.9,68.5h-17V52.4h17V68.5z"/></g></svg>
