<svg version="1.1" id="Layer_1" xmlns="http://www.w3.org/2000/svg" xmlns:xlink="http://www.w3.org/1999/xlink" x="0px" y="0px" width="39.9px" height="40px" viewBox="-12 -10 39.9 40" enable-background="new -12 -10 39.9 40" xml:space="preserve"><g><path d="M27,4.1c-0.2-0.7-1-1-1.7-0.8c-0.2,0.1-0.3,0.2-0.5,0.3c-0.4,0.3-0.5,0.9-0.3,1.4c0.5,1.5,0.8,3.1,0.8,4.7 c0,0.2,0,0.3,0,0.5c0,0.5,0,1-0.1,1.4c-0.2,0.6-0.7,1-1.3,0.9c-0.6,0-1-0.4-1.2-1c0.2-3.7-0.8-7.4-3-10.6c-0.4-0.6-1.2-0.8-1.8-0.3 c-0.1,0-0.1,0.1-0.2,0.1c-0.5,0.4-0.5,1.1-0.2,1.7c1.7,2.5,2.5,5.3,2.5,8.1c-0.1,3.1-1.4,6-3.7,8.2c-2.3,2.3-5.4,3.5-8.7,3.4 c-3.2-0.1-6.3-1.4-8.5-3.7C-3,16.1-4.2,13-4.2,9.8c0.1-3.2,1.4-6.3,3.7-8.5C2.2-1.3,5.9-2.5,9.6-2c0.7,0.1,1.5,0,2.1-0.3 C13-2.9,13.9-4,14.1-5.4c0.3-2.1-1.2-4.1-3.4-4.4C4.6-10.6-1.5-8.7-5.9-4.4l0,0l0,0l0,0l0,0c-3.8,3.7-6,8.7-6.1,14 C-12.1,15-10.1,20-6.4,23.9l0,0l0,0l0,0l0,0c3.7,3.8,8.7,6,14,6.1c2.9,0,5.7-0.5,8.3-1.6c2.2-0.9,4.2-2.3,5.9-4l0,0l0,0l0,0l0,0 c4-3.9,6.2-9.3,6.1-14.8l0,0C27.9,7.7,27.6,5.9,27,4.1z"/></g></svg>
